<?xml version="1.0" encoding="UTF-8"?>
<svg xmlns="http://www.w3.org/2000/svg" xmlns:xlink="http://www.w3.org/1999/xlink" width="375pt" height="374.999991pt" viewBox="0 0 375 374.999991" version="1.2">
<g id="surface1">
<path style="fill:none;stroke-width:5;stroke-linecap:butt;stroke-linejoin:miter;stroke:rgb(100%,100%,100%);stroke-opacity:1;stroke-miterlimit:4;" d="M 80.786525 114.947473 L 80.786525 139.064932 C 72.521055 144.753768 62.256692 147.596078 49.993434 147.596078 C 37.734393 147.596078 28.153196 143.754321 21.249842 136.070808 C 14.371791 128.391512 10.930657 116.984321 10.930657 101.861886 C 10.930657 95.198905 11.799374 89.210657 13.53681 83.892924 C 15.274245 78.554105 17.538815 74.147261 20.338954 70.676607 C 23.139092 67.205953 26.403109 64.317256 30.139439 62.01895 C 37.232561 57.831393 45.295611 55.735506 54.324371 55.735506 C 63.348914 55.735506 71.770416 57.557283 79.584658 61.205054 L 79.584658 83.859187 L 65.976153 84.803812 L 65.976153 74.387634 C 65.976153 73.063472 65.803253 72.085111 65.457452 71.456766 C 64.479091 69.786804 60.430698 68.951823 53.312273 68.951823 C 36.169858 68.951823 27.596542 79.561987 27.596542 100.786531 C 27.596542 123.204509 35.334877 134.413497 50.80733 134.413497 C 56.926307 134.413497 61.636781 133.338143 64.934535 131.187434 L 64.934535 111.333439 L 64.803806 111.333439 L 54.518357 110.941251 L 54.518357 99.614184 L 87.719398 99.614184 L 87.719398 110.258085 L 84.662018 110.519543 C 83.228212 110.713529 82.220331 111.105717 81.634157 111.691891 C 81.069069 112.256979 80.786525 113.340767 80.786525 114.947473 Z M 80.786525 114.947473 " transform="matrix(0.926293,0,0,0.926293,0.0000045,101.169442)"/>
<path style="fill:none;stroke-width:6.17529;stroke-linecap:butt;stroke-linejoin:miter;stroke:rgb(100%,100%,100%);stroke-opacity:1;stroke-miterlimit:4;" d="M 78.717519 179.836589 C 77.722727 192.034506 74.201894 200.987632 68.144602 206.695966 C 62.113351 212.404299 52.681059 215.258466 39.842517 215.258466 C 27.003974 215.258466 16.967515 213.435549 9.727931 209.789716 L 9.727931 186.914714 L 25.368557 185.586589 L 25.368557 193.508465 C 25.368557 196.456382 26.733141 198.451173 29.467516 199.498049 C 32.227933 200.544924 36.0196 201.065757 40.847725 201.065757 C 47.868559 201.065757 52.800851 198.951174 55.639393 194.71159 C 58.509185 190.508465 59.941476 184.555339 59.941476 176.86263 L 59.941476 167.820963 C 54.660226 173.95638 47.358142 177.024089 38.030017 177.024089 C 32.321683 177.024089 27.295641 175.92513 22.957099 173.727214 C 18.63939 171.529297 15.26439 168.570963 12.82689 164.841796 C 8.10814 157.393879 5.748764 148.612629 5.748764 138.508461 C 5.748764 124.117835 9.649806 113.222001 17.446682 105.826167 C 25.248766 98.404292 35.618558 94.69075 48.566476 94.69075 C 59.33731 94.69075 69.498769 96.727208 79.040436 100.800125 L 79.040436 161.867838 C 79.040436 171.222005 78.931061 177.211589 78.717519 179.836589 Z M 59.941476 146.38867 L 59.941476 111.013668 C 56.108143 109.701168 51.712309 109.044918 46.753975 109.044918 C 40.056058 109.044918 34.920641 111.508459 31.358141 116.440751 C 27.795641 121.373043 26.009182 128.070961 26.009182 136.539711 C 26.009182 153.883462 31.717516 162.550129 43.139392 162.550129 C 47.852934 162.550129 51.832101 161.102213 55.076893 158.211588 C 58.321685 155.289712 59.941476 151.347004 59.941476 146.38867 Z M 59.941476 146.38867 " transform="matrix(0.75,0,0,0.75,215.204052,101.169442)"/>
<path style="fill:none;stroke-width:6.17529;stroke-linecap:butt;stroke-linejoin:miter;stroke:rgb(100%,100%,100%);stroke-opacity:1;stroke-miterlimit:4;" d="M 43.299797 167.977213 C 55.278965 167.977213 61.268548 158.315754 61.268548 138.992836 C 61.268548 129.237627 59.914382 121.841793 57.206048 116.800126 C 54.528965 111.737626 50.023756 109.201168 43.700839 109.201168 C 37.403963 109.201168 32.763338 111.617834 29.78938 116.440751 C 26.841463 121.263668 25.367504 127.841794 25.367504 136.180336 C 25.367504 151.66992 28.221671 161.388671 33.930005 165.326171 C 36.450838 167.097005 39.57063 167.977213 43.299797 167.977213 Z M 5.424795 138.508461 C 5.424795 130.388669 6.633128 123.341794 9.044587 117.362626 C 11.456045 111.362626 14.700837 106.763667 18.773754 103.576167 C 26.575838 97.649084 35.190422 94.69075 44.622714 94.69075 C 51.216464 94.69075 56.79459 95.763667 61.346673 97.904292 C 65.903965 100.050125 69.471674 102.529292 72.044591 105.341792 C 74.617508 108.133459 76.799799 112.190751 78.596675 117.524085 C 80.419591 122.831377 81.33105 129.117836 81.33105 136.378253 C 81.33105 151.524087 77.659174 162.992838 70.315424 170.794922 C 62.971673 178.565756 53.549798 182.451172 42.049797 182.451172 C 30.581046 182.451172 21.601879 178.753256 15.117504 171.357422 C 8.65917 163.930338 5.424795 152.982421 5.424795 138.508461 Z M 5.424795 138.508461 " transform="matrix(0.75,0,0,0.75,85.52906,101.169442)"/>
<path style="fill:none;stroke-width:6.17529;stroke-linecap:butt;stroke-linejoin:miter;stroke:rgb(100%,100%,100%);stroke-opacity:1;stroke-miterlimit:4;" d="M 43.29772 167.980118 C 55.276887 167.980118 61.266471 158.318659 61.266471 138.995741 C 61.266471 129.235324 59.917512 121.83949 57.209179 116.803032 C 54.526887 111.735323 50.026887 109.204073 43.698761 109.204073 C 37.401886 109.204073 32.766469 111.615531 29.79251 116.438448 C 26.839385 121.261365 25.365427 127.844699 25.365427 136.178033 C 25.365427 151.672826 28.224802 161.386368 33.933136 165.323868 C 36.448761 167.094702 39.573761 167.980118 43.29772 167.980118 Z M 5.427925 138.511366 C 5.427925 130.391574 6.63105 123.33949 9.047717 117.365532 C 11.459176 111.360323 14.698759 106.766573 18.776885 103.573864 C 26.57376 97.651989 35.188344 94.688447 44.625845 94.688447 C 51.219595 94.688447 56.792512 95.761364 61.349804 97.907197 C 65.907096 100.047822 69.469596 102.526989 72.042513 105.344697 C 74.61543 108.131156 76.80293 112.193656 78.594597 117.52699 C 80.417514 122.834282 81.328972 129.115532 81.328972 136.381158 C 81.328972 151.521784 77.657097 162.995743 70.313346 170.792618 C 62.969596 178.568661 53.54772 182.454078 42.052928 182.454078 C 30.578969 182.454078 21.599801 178.756161 15.115426 171.355118 C 8.657092 163.933243 5.427925 152.985326 5.427925 138.511366 Z M 5.427925 138.511366 " transform="matrix(0.75,0,0,0.75,149.991556,101.030545)"/>
<path style="fill:none;stroke-width:6.17529;stroke-linecap:butt;stroke-linejoin:miter;stroke:rgb(100%,100%,100%);stroke-opacity:1;stroke-miterlimit:4;" d="M 34.895608 62.607415 L 34.895608 166.33138 L 44.301858 166.815755 L 44.301858 179.998047 L 5.103939 179.998047 L 5.103939 167.498046 L 10.531023 166.972005 C 13.723731 166.654296 15.317481 164.899088 15.317481 161.706379 L 15.317481 80.539707 C 15.317481 78.128249 13.952898 76.815749 11.218523 76.596999 L 5.426856 76.27929 L 5.426856 62.607415 Z M 34.895608 62.607415 " transform="matrix(0.75,0,0,0.75,279.394702,101.169442)"/>
<path style="fill:none;stroke-width:6.17529;stroke-linecap:butt;stroke-linejoin:miter;stroke:rgb(100%,100%,100%);stroke-opacity:1;stroke-miterlimit:4;" d="M 46.757316 94.688447 C 54.981275 94.688447 61.512525 96.698863 66.335442 100.719697 C 71.184401 104.714489 73.611484 110.344698 73.611484 117.605115 C 73.611484 122.428032 72.564609 126.678032 70.476067 130.349907 C 68.382317 134.021782 65.798984 136.901991 62.71565 138.995741 C 59.658358 141.084283 55.9344 142.787408 51.538566 144.099908 C 44.194815 146.297825 35.913565 147.396783 26.694814 147.396783 C 27.017731 153.209284 28.825023 157.901992 32.121898 161.464493 C 35.418773 165.032201 40.470857 166.813451 47.278149 166.813451 C 54.085441 166.813451 60.882317 164.401993 67.663567 159.579076 L 73.934401 172.922827 C 71.736484 174.907202 68.022942 176.94366 62.798983 179.03741 C 57.595858 181.099911 51.647941 182.131161 44.944816 182.131161 C 31.543773 182.131161 21.720856 178.433244 15.476064 171.03741 C 9.231272 163.610326 6.11148 153.428034 6.11148 140.480116 C 6.11148 127.537407 9.67398 116.667615 16.804189 107.875947 C 23.934397 99.08428 33.918773 94.688447 46.757316 94.688447 Z M 39.236482 132.360324 C 43.257315 131.636366 46.970857 130.042616 50.371899 127.573865 C 53.778149 125.084282 55.481275 122.136365 55.481275 118.730115 C 55.481275 112.032198 52.194816 108.678031 45.632316 108.678031 C 39.465649 108.678031 34.736482 111.131156 31.439606 116.037406 C 28.142731 120.917615 26.330231 126.756157 26.012523 133.563449 C 30.83544 133.459282 35.246898 133.058241 39.236482 132.360324 Z M 39.236482 132.360324 " transform="matrix(0.75,0,0,0.75,312.107797,98.030545)"/>
</g>
</svg>
